# Rhino

g Default
v -3.854197502136231 0 7.576205253601074
v -3.854197502136231 8.573515892028809 7.576205253601074
v 6.143590450286865 0 7.576205253601074
v 6.143590450286865 8.573515892028809 7.576205253601074
v 6.143590450286865 0 7.576205253601074
v 6.143590450286865 8.573515892028809 7.576205253601074
v 6.143590450286865 0 -1.753445982933044
v 6.143590450286865 8.573515892028809 -1.753445982933044
v 6.143590450286865 0 -1.753445982933044
v 6.143590450286865 8.573515892028809 -1.753445982933044
v -3.854197502136231 0 -1.753445982933044
v -3.854197502136231 8.573515892028809 -1.753445982933044
v -3.854197502136231 0 -1.753445982933044
v -3.854197502136231 8.573515892028809 -1.753445982933044
v -3.854197502136231 0 7.576205253601074
v -3.854197502136231 8.573515892028809 7.576205253601074
v -3.854197502136231 0 7.576205253601074
v 6.143590450286865 0 7.576205253601074
v 6.143590450286865 0 -1.753445982933044
v -3.854197502136231 0 -1.753445982933044
v -3.854197502136231 8.573515892028809 7.576205253601074
v 6.143590450286865 8.573515892028809 7.576205253601074
v 6.143590450286865 8.573515892028809 -1.753445982933044
v -3.854197502136231 8.573515892028809 -1.753445982933044
vt 0 0
vt 0 0.6574110388755798
vt 0.2586423456668854 0
vt 0.2586423456668854 0.6574110388755798
vt 0.2586423456668854 0
vt 0.2586423456668854 0.6574110388755798
vt 0.5 0
vt 0.5 0.6574110388755798
vt 0.5 0
vt 0.5 0.6574110388755798
vt 0.758642315864563 0
vt 0.758642315864563 0.6574110388755798
vt 0.758642315864563 0
vt 0.758642315864563 0.6574110388755798
vt 1 0
vt 1 0.6574110388755798
vt 0 1
vt 0.2586423456668854 1
vt 0.2586423456668854 0.6574116945266724
vt 0 0.6574116945266724
vt 0.741357684135437 0.6574116945266724
vt 1 0.6574116945266724
vt 1 1
vt 0.741357684135437 1
vn 0 0 1
vn 0 0 1
vn 0 0 1
vn 0 0 1
vn 1 0 0
vn 1 0 0
vn 1 0 0
vn 1 0 0
vn 0 0 -1
vn 0 0 -1
vn 0 0 -1
vn 0 0 -1
vn -1 0 0
vn -1 0 0
vn -1 0 0
vn -1 0 0
vn 0 -1 0
vn 0 -1 0
vn 0 -1 0
vn 0 -1 0
vn 0 1 0
vn 0 1 0
vn 0 1 0
vn 0 1 0
f 1/1/1 3/3/3 4/4/4 2/2/2
f 5/5/5 7/7/7 8/8/8 6/6/6
f 9/9/9 11/11/11 12/12/12 10/10/10
f 13/13/13 15/15/15 16/16/16 14/14/14
f 18/18/18 17/17/17 20/20/20
f 20/20/20 19/19/19 18/18/18
f 22/22/22 24/24/24 21/21/21
f 24/24/24 22/22/22 23/23/23
